<?xml version="1.0" encoding="utf-8"?>
<!-- Generator: Adobe Illustrator 24.1.1, SVG Export Plug-In . SVG Version: 6.00 Build 0)  -->
<svg version="1.1" id="Layer_1" xmlns="http://www.w3.org/2000/svg" xmlns:xlink="http://www.w3.org/1999/xlink" x="0px" y="0px"
	 viewBox="0 0 80 38" style="enable-background:new 0 0 80 38;" xml:space="preserve">
<style type="text/css">
	.st0{fill-rule:evenodd;clip-rule:evenodd;fill:#FFFFFF;stroke:#000000;stroke-miterlimit:10;}
	.st1{fill-rule:evenodd;clip-rule:evenodd;fill:#FF5100;stroke:#000000;stroke-miterlimit:10;}
</style>
<g>
	<path class="st0" d="M41.6,20.8c0-0.1-0.1-0.3-0.3-0.3h-4.1v3.9h4.1c0.2,0,0.3-0.1,0.3-0.3V20.8z M41.6,13.9c0-0.1-0.1-0.3-0.3-0.3
		h-4.1v3.7h4.1c0.2,0,0.3-0.1,0.3-0.3V13.9z M32.7,27.8V10.1h11c1.5,0,2.4,0.9,2.4,2.2v3.9c0,1.2-0.8,2.4-2.4,2.8
		c1.6,0.4,2.6,1.5,2.6,2.7v3.9c0,1.4-0.9,2.3-2.4,2.3H32.7z M57.8,17h5v8.9c0,1.2-0.9,2-2,2h-8.9c-1.1,0-2.1-0.9-2.1-2V12.1
		c0-1.1,0.9-2,2.1-2h11v3.8h-8.2c-0.1,0-0.3,0.1-0.3,0.3v9.5c0,0.2,0.1,0.3,0.3,0.3h3.7c0.2,0,0.3-0.1,0.3-0.3v-3h-2.4L57.8,17z
		 M74.3,17h5v8.9c0,1.2-0.9,2-2,2h-8.9c-1.1,0-2.1-0.9-2.1-2V12.1c0-1.1,0.9-2,2.1-2h11v3.8h-8.2c-0.1,0-0.3,0.1-0.3,0.3v9.5
		c0,0.2,0.1,0.3,0.3,0.3h3.7c0.2,0,0.3-0.1,0.3-0.3v-3h-2.4L74.3,17z"/>
	<polygon class="st1" points="24.9,7 21.1,8 24.8,0 0.9,8.8 2.2,19.3 0,21.5 6.6,37.9 20.6,32.8 25.4,21.4 23.3,19.4 	"/>
</g>
</svg>
